<svg xmlns="http://www.w3.org/2000/svg" width="1600" height="900" viewBox="0 0 1600 900" fill="none">
  <defs>
    <linearGradient id="bg" x1="0" y1="0" x2="1600" y2="900" gradientUnits="userSpaceOnUse">
      <stop stop-color="#EEF2FF"/>
      <stop offset="1" stop-color="#F8FAFC"/>
    </linearGradient>
    <linearGradient id="card" x1="0" y1="0" x2="0" y2="1">
      <stop stop-color="#FFFFFF"/>
      <stop offset="1" stop-color="#F8FAFC"/>
    </linearGradient>
    <filter id="shadow" x="-20%" y="-20%" width="140%" height="140%">
      <feDropShadow dx="0" dy="16" stdDeviation="18" flood-color="#0F172A" flood-opacity="0.14"/>
    </filter>
  </defs>

  <rect width="1600" height="900" fill="url(#bg)"/>

  <g opacity="0.45">
    <path d="M0 130H1600" stroke="#CBD5E1"/>
    <path d="M0 260H1600" stroke="#E2E8F0"/>
    <path d="M0 390H1600" stroke="#E2E8F0"/>
    <path d="M0 520H1600" stroke="#E2E8F0"/>
    <path d="M0 650H1600" stroke="#E2E8F0"/>
    <path d="M0 780H1600" stroke="#E2E8F0"/>
  </g>

  <g filter="url(#shadow)">
    <rect x="130" y="120" width="1340" height="660" rx="34" fill="url(#card)" stroke="#E2E8F0"/>
  </g>

  <path d="M280 630C420 580 470 470 620 470C760 470 820 600 970 600C1110 600 1180 470 1310 360"
        stroke="#475569" stroke-width="10" stroke-linecap="round" stroke-dasharray="2 26" opacity="0.75"/>

  <g>
    <circle cx="360" cy="592" r="48" fill="#EEF2FF" stroke="#6366F1" stroke-width="4"/>
    <circle cx="360" cy="592" r="8" fill="#6366F1"/>
    <text x="360" y="664" text-anchor="middle" font-family="Inter, Arial, sans-serif" font-size="24" font-weight="700" fill="#3730A3">Boek I</text>
    <text x="360" y="694" text-anchor="middle" font-family="Inter, Arial, sans-serif" font-size="22" fill="#475569">Fundamenten</text>
  </g>

  <g>
    <circle cx="810" cy="552" r="48" fill="#ECFEFF" stroke="#0891B2" stroke-width="4"/>
    <circle cx="810" cy="552" r="8" fill="#0891B2"/>
    <text x="810" y="624" text-anchor="middle" font-family="Inter, Arial, sans-serif" font-size="24" font-weight="700" fill="#0E7490">Boek II</text>
    <text x="810" y="654" text-anchor="middle" font-family="Inter, Arial, sans-serif" font-size="22" fill="#475569">Verdieping</text>
  </g>

  <g>
    <circle cx="1250" cy="400" r="48" fill="#F0FDF4" stroke="#16A34A" stroke-width="4"/>
    <circle cx="1250" cy="400" r="8" fill="#16A34A"/>
    <text x="1250" y="472" text-anchor="middle" font-family="Inter, Arial, sans-serif" font-size="24" font-weight="700" fill="#166534">Boek III</text>
    <text x="1250" y="502" text-anchor="middle" font-family="Inter, Arial, sans-serif" font-size="22" fill="#475569">Integratie</text>
  </g>

  <g transform="translate(1030 560)">
    <circle cx="0" cy="0" r="74" fill="#DBEAFE" stroke="#1D4ED8" stroke-width="4"/>
    <polygon points="0,-52 16,-16 52,0 16,16 0,52 -16,16 -52,0 -16,-16" fill="#3B82F6"/>
    <circle cx="0" cy="0" r="18" fill="#1D4ED8"/>
  </g>
</svg>
